 http://www.imdb.com/title/tt0903624/

Source: The.Hobbit.An.Unexpected.Journey.2012.720p.BluRay.x264-SPARKS Many thanks!

Subs: Arabic, Brazilian, Danish, Dutch, English, Farsi-Persian, French, Indonesian, Malay, Norwegian, Portuguese, Spanish, Swedish and Vietnamese.

Subs: Hardcoded English when needed.

Sample and Screens included.

General
Complete name                            : The Hobbit An Unexpected Journey-720p MP4 AAC x264 BRRip 2012-CC.mp4
Format                                   : MPEG-4
Format profile                           : Base Media
Codec ID                                 : isom
File size                                : 3.32 GiB
Duration                                 : 2h 49mn
Overall bit rate mode                    : Variable
Overall bit rate                         : 2 801 Kbps
Encoded date                             : UTC 2013-02-28 06:20:11

Video
ID                                       : 1
Format                                   : AVC
Format/Info                              : Advanced Video Codec
Format profile                           : High@L4.1
Format settings, CABAC                   : Yes
Format settings, ReFrames                : 5 frames
Codec ID                                 : avc1
Codec ID/Info                            : Advanced Video Coding
Duration                                 : 2h 49mn
Bit rate                                 : 2 464 Kbps
Maximum bit rate                         : 12.0 Mbps
Width                                    : 1 280 pixels
Height                                   : 536 pixels
Display aspect ratio                     : 2.40:1
Frame rate mode                          : Variable
Frame rate                               : 23.976 fps
Minimum frame rate                       : 15.873 fps
Maximum frame rate                       : 25.000 fps
Color space                              : YUV
Chroma subsampling                       : 4:2:0
Bit depth                                : 8 bits
Scan type                                : Progressive
Bits/(Pixel*Frame)                       : 0.150
Stream size                              : 2.86 GiB (86%)
Writing library                          : x264 core 112

Audio
ID                                       : 2
Format                                   : AAC
Format/Info                              : Advanced Audio Codec
Format profile                           : LC
Codec ID                                 : 40
Duration                                 : 2h 49mn
Bit rate mode                            : Variable
Bit rate                                 : 384 Kbps
Maximum bit rate                         : 682 Kbps
Channel(s)                               : 6 channels
Channel positions                        : Front: L C R, Side: L R, LFE
Sampling rate                            : 48.0 KHz
Compression mode                         : Lossy
Delay relative to video                  : 83ms
Stream size                              : 465 MiB (14%)
Language                                 : English

Enjoy...

Coming soon: Life of Pi, Mortal Kombat, Tropa de Elite, Le Samourai and more...